<?xml version="1.0" encoding="utf-8"?>
<!-- Generator: Adobe Illustrator 26.0.1, SVG Export Plug-In . SVG Version: 6.00 Build 0)  -->
<svg version="1.1" id="Layer_1" xmlns="http://www.w3.org/2000/svg" xmlns:xlink="http://www.w3.org/1999/xlink" x="0px" y="0px"
	 viewBox="0 0 612 792" style="enable-background:new 0 0 612 792;" xml:space="preserve">
<style type="text/css">
	.st0{fill:#C39A66;}
	.st1{fill:url(#SVGID_1_);}
	.st2{fill:url(#SVGID_00000060011020327641486950000012719613084755595930_);}
</style>
<g>
	<g>
		<path class="st0" d="M112,598.75h-11.3l-24.06-59.84h11.3l18.41,44.69l18.41-44.69h11.3L112,598.75z"/>
		<path class="st0" d="M210.8,590.49c-6.05,5.91-13.53,8.86-22.43,8.86s-16.38-2.95-22.43-8.86c-6.05-5.91-9.07-13.27-9.07-22.09
			c0-8.82,3.02-16.18,9.07-22.09c6.05-5.91,13.53-8.86,22.43-8.86s16.38,2.95,22.43,8.86c6.05,5.91,9.07,13.27,9.07,22.09
			C219.88,577.22,216.85,584.58,210.8,590.49z M203.4,553.04c-4.08-4.22-9.09-6.33-15.03-6.33c-5.94,0-10.94,2.11-15.02,6.33
			c-4.08,4.22-6.12,9.35-6.12,15.37s2.04,11.14,6.12,15.37c4.08,4.22,9.09,6.33,15.02,6.33c5.94,0,10.94-2.11,15.03-6.33
			c4.08-4.22,6.12-9.35,6.12-15.37S207.48,557.26,203.4,553.04z"/>
		<path class="st0" d="M271.33,598.75h-10.27v-23.63l-22.26-36.21h11.04l16.35,27.22l16.35-27.22h11.04l-22.26,36.21V598.75z"/>
		<path class="st0" d="M322.44,585.14l-5.99,13.61h-10.79l26.37-59.84h10.79l26.37,59.84H358.4l-5.99-13.61H322.44z M348.3,575.81
			l-10.87-24.66l-10.87,24.66H348.3z"/>
		<path class="st0" d="M436.05,569.64h10.1v20.46c-5.65,6.22-13.73,9.33-24.23,9.33c-8.85,0-16.25-2.91-22.22-8.73
			c-5.96-5.82-8.95-13.18-8.95-22.09c0-8.9,3.04-16.32,9.12-22.26c6.08-5.94,13.43-8.9,22.05-8.9c8.62,0,15.78,2.51,21.49,7.53
			l-5.39,7.71c-2.34-2-4.7-3.38-7.06-4.15c-2.37-0.77-5.12-1.16-8.26-1.16c-6.05,0-11.13,1.96-15.24,5.86
			c-4.11,3.91-6.16,9.05-6.16,15.41s2,11.47,5.99,15.32c3.99,3.85,8.83,5.78,14.51,5.78c5.68,0,10.43-1.23,14.25-3.68V569.64z"/>
		<path class="st0" d="M526.63,590.49c-6.05,5.91-13.53,8.86-22.43,8.86c-8.9,0-16.38-2.95-22.43-8.86
			c-6.05-5.91-9.08-13.27-9.08-22.09c0-8.82,3.02-16.18,9.08-22.09c6.05-5.91,13.53-8.86,22.43-8.86c8.9,0,16.38,2.95,22.43,8.86
			c6.05,5.91,9.08,13.27,9.08,22.09C535.7,577.22,532.68,584.58,526.63,590.49z M519.22,553.04c-4.08-4.22-9.09-6.33-15.03-6.33
			c-5.94,0-10.95,2.11-15.03,6.33c-4.08,4.22-6.12,9.35-6.12,15.37s2.04,11.14,6.12,15.37c4.08,4.22,9.09,6.33,15.03,6.33
			c5.94,0,10.94-2.11,15.03-6.33c4.08-4.22,6.12-9.35,6.12-15.37S523.3,557.26,519.22,553.04z"/>
	</g>
</g>
<g>
	<linearGradient id="SVGID_1_" gradientUnits="userSpaceOnUse" x1="448.5753" y1="332.6056" x2="163.7712" y2="332.6056">
		<stop  offset="0" style="stop-color:#9B6427"/>
		<stop  offset="0.018" style="stop-color:#9D6829"/>
		<stop  offset="0.1729" style="stop-color:#B38843"/>
		<stop  offset="0.3313" style="stop-color:#C7A661"/>
		<stop  offset="0.4916" style="stop-color:#D9C079"/>
		<stop  offset="0.6546" style="stop-color:#E6D48B"/>
		<stop  offset="0.8218" style="stop-color:#F0E298"/>
		<stop  offset="1" style="stop-color:#F4E79D"/>
	</linearGradient>
	<path class="st1" d="M407.55,232.77c-27.34-26.7-61.14-40.05-101.38-40.05c-40.24,0-74.04,13.35-101.39,40.05
		c-27.34,26.7-41.01,59.99-41.01,99.84c0,39.86,13.68,73.14,41.01,99.84c27.35,26.7,61.14,40.05,101.39,40.05
		c40.24,0,74.04-13.35,101.38-40.05c27.35-26.7,41.02-59.98,41.02-99.84C448.58,292.75,434.91,259.47,407.55,232.77z M306.17,211
		c22,0,42.63,5.85,60.45,16.06c0.1,0.06,0.19,0.12,0.29,0.17l-30.76,77.06l-15.02-37.04h-25.21l-14.67,35.42l-30.58-78.29
		C267.32,215.84,286.18,211,306.17,211z M324.33,333.95l-11,27.57c-1.1,2.76-2.03,5.46-2.81,8.1c-0.77,2.64-1.34,5.17-1.7,7.61
		h-0.55c-0.45-2.92-0.99-5.68-1.63-8.28c-0.64-2.6-1.41-5-2.31-7.19l-11.92-30.5l11.01-27.57c1.09-2.76,2.01-5.46,2.79-8.1
		c0.77-2.64,1.34-5.18,1.7-7.61h0.55c0.45,2.92,1,5.68,1.63,8.28c0.64,2.59,1.41,5,2.31,7.19L324.33,333.95z M229.71,427.16
		c-0.08-0.07-0.16-0.13-0.24-0.2c-27.39-22.3-44.89-56.29-44.89-94.36c0-37.86,17.3-71.68,44.43-93.98c0.5-0.41,1-0.81,1.5-1.2
		l38.48,94.89l-38.36,92.62L229.71,427.16z M363.69,439.76c-17.13,9.22-36.71,14.44-57.52,14.44c-20.65,0-40.1-5.15-57.14-14.24
		l0.86-2.18l30.68-76.87l15.02,37.04h25.22l14.67-35.42l29.37,75.21l0.45,1.13C364.76,439.17,364.23,439.47,363.69,439.76z
		 M385.12,425.07l-0.32-0.77l-37.06-91.4l38.14-92.1c25.65,22.3,41.88,55.16,41.88,91.81C427.77,369.62,411.22,402.77,385.12,425.07
		z"/>
	
		<linearGradient id="SVGID_00000159460888565529043240000004839123402711154334_" gradientUnits="userSpaceOnUse" x1="347.753" y1="332.6055" x2="268.9868" y2="332.6055">
		<stop  offset="0" style="stop-color:#F4E79D"/>
		<stop  offset="0.1782" style="stop-color:#F0E298"/>
		<stop  offset="0.3454" style="stop-color:#E6D48B"/>
		<stop  offset="0.5084" style="stop-color:#D9C079"/>
		<stop  offset="0.6687" style="stop-color:#C7A661"/>
		<stop  offset="0.8271" style="stop-color:#B38843"/>
		<stop  offset="0.982" style="stop-color:#9D6829"/>
		<stop  offset="1" style="stop-color:#9B6427"/>
	</linearGradient>
	<path style="fill:url(#SVGID_00000159460888565529043240000004839123402711154334_);" d="M347.75,332.89l-11.56-28.71l-0.05,0.12
		l-15.02-37.04h-25.2l-14.67,35.42l-12.27,29.63l11.6,28.6l15.02,37.04h25.22l14.67-35.42l0,0l0,0L347.75,332.89L347.75,332.89
		L347.75,332.89z M313.32,361.52c-1.1,2.76-2.03,5.46-2.81,8.1c-0.77,2.64-1.34,5.17-1.7,7.61h-0.55c-0.45-2.92-0.99-5.68-1.63-8.28
		c-0.64-2.6-1.41-5-2.31-7.19l-11.92-30.5l11.01-27.57c1.09-2.76,2.01-5.46,2.79-8.1c0.77-2.64,1.34-5.18,1.7-7.61h0.55
		c0.45,2.92,1,5.68,1.63,8.28c0.64,2.59,1.41,5,2.31,7.19l11.92,30.5L313.32,361.52z"/>
</g>
</svg>
